<svg xmlns="http://www.w3.org/2000/svg" viewBox="-613.483 -449.158 1792 1568">
  <path d="M 1178.2112 278.676 c 0 402.0581 -401.0083 727.8336 -895.7952 727.8336 c -129.8203 0 -252.9922 -22.3949 -364.2667 -62.6357 c -41.6405 30.443 -109.525 72.0835 -190.0066 107.0755 C -355.8381 1087.3411 -456.965 1118.484 -557.392 1118.484 c -22.7448 0 -43.0402 -13.6469 -51.7882 -34.6421 c -8.748 -20.9952 -3.8491 -44.7898 11.8973 -60.8861 l 0 0 l 0 0 l 0 0 l 0 0 l 1.0498 -1.0498 c 1.0498 -1.0498 2.4494 -2.4494 4.549 -4.8989 c 3.8491 -4.199 9.7978 -10.8475 17.1461 -19.9454 c 14.3467 -17.496 33.5923 -43.3901 53.1878 -75.5827 c 34.992 -58.0867 68.2344 -134.3693 74.8829 -220.0997 C -551.4434 582.4066 -613.3792 436.4899 -613.3792 278.676 C -613.3792 -123.3821 -212.3709 -449.1576 282.416 -449.1576 s 895.7952 325.7755 895.7952 727.8336 z

M362.7 19.3L314.3 67.7 444.3 197.7l48.4-48.4c25-25 25-65.5 0-90.5L453.3 19.3c-25-25-65.5-25-90.5 0zm-71 71L58.6 323.5c-10.4 10.4-18 23.3-22.2 37.4L1 481.2C-1.5 489.7 .8 498.8 7 505s15.3 8.5 23.7 6.1l120.3-35.4c14.1-4.2 27-11.8 37.4-22.2L421.7 220.3 291.7 90.3z" fill="#000000"/>
</svg>