<svg xmlns="http://www.w3.org/2000/svg" viewBox="-1139.8 -1032.89 2365 2069">
  <path d="M 1225.2388 -72.1477 c 0 530.7167 -529.331 960.7404 -1182.4497 960.7404 c -171.3628 0 -333.9497 -29.5613 -480.832 -82.6791 c -54.9655 40.1848 -144.573 95.1502 -250.8087 141.3397 C -799.7063 995.2903 -933.1938 1036.3989 -1065.7574 1036.3989 c -30.0231 0 -56.8131 -18.0139 -68.3604 -45.7276 c -11.5474 -27.7137 -5.0808 -59.1225 15.7044 -80.3697 l 0 0 l 0 0 l 0 0 l 0 0 l 1.3857 -1.3857 c 1.3857 -1.3857 3.2332 -3.2332 6.0047 -6.4665 c 5.0808 -5.5427 12.9331 -14.3187 22.6329 -26.3279 c 18.9376 -23.0947 44.3418 -57.2749 70.2079 -99.7692 c 46.1894 -76.6744 90.0694 -177.3675 98.8454 -290.5316 C -1057.9053 328.7767 -1139.6605 136.1667 -1139.6605 -72.1477 C -1139.6605 -602.8644 -610.3296 -1032.888 42.7891 -1032.888 s 1182.4497 430.0237 1182.4497 960.7404 z M 148.764 -414.524 L 84.876 -350.636 L 256.476 -179.036 l 63.888 -63.888 c 33 -33 33 -86.46 0 -119.46 L 268.356 -414.524 c -33 -33 -86.46 -33 -119.46 0 z m -93.72 93.72 L -252.648 -12.98 c -13.728 13.728 -23.76 30.756 -29.304 49.368 L -328.68 195.184 C -331.98 206.404 -328.944 218.416 -320.76 226.6 s 20.196 11.22 31.284 8.052 l 158.796 -46.728 c 18.612 -5.544 35.64 -15.576 49.368 -29.304 L 226.644 -149.204 L 55.044 -320.804 z" fill="#683206"/>
</svg>