<svg xmlns="http://www.w3.org/2000/svg" viewBox="-1036.18 -838.989 2150 1881">
  <path d="M 1113.8534 34.4112 c 0 482.4697 -481.21 873.4003 -1074.9542 873.4003 c -155.7844 0 -303.5906 -26.8739 -437.12 -75.1628 c -49.9686 36.5316 -131.43 86.5002 -228.0079 128.4906 C -727.0057 1004.8093 -848.358 1042.1808 -968.8704 1042.1808 c -27.2938 0 -51.6482 -16.3763 -62.1458 -41.5705 c -10.4976 -25.1942 -4.6189 -53.7478 14.2768 -73.0633 l 0 0 l 0 0 l 0 0 l 0 0 l 1.2598 -1.2598 c 1.2598 -1.2598 2.9393 -2.9393 5.4588 -5.8787 c 4.6189 -5.0388 11.7574 -13.017 20.5753 -23.9345 c 17.216 -20.9952 40.3108 -52.0681 63.8254 -90.6992 c 41.9904 -69.704 81.8813 -161.2432 89.8595 -264.1196 C -961.7321 398.8879 -1036.055 223.7879 -1036.055 34.4112 C -1036.055 -448.0585 -554.8451 -838.9891 38.8992 -838.9891 s 1074.9542 390.9306 1074.9542 873.4003 z M 135.24 -276.84 L 77.16 -218.76 L 233.16 -62.76 l 58.08 -58.08 c 30 -30 30 -78.6 0 -108.6 L 243.96 -276.84 c -30 -30 -78.6 -30 -108.6 0 z m -85.2 85.2 L -229.68 88.2 c -12.48 12.48 -21.6 27.96 -26.64 44.88 L -298.8 277.44 C -301.8 287.64 -299.04 298.56 -291.6 306 s 18.36 10.2 28.44 7.32 l 144.36 -42.48 c 16.92 -5.04 32.4 -14.16 44.88 -26.64 L 206.04 -35.64 L 50.04 -191.64 z" fill="#4e5166"/>
</svg>